<?xml version="1.0" encoding="UTF-8"?>
<svg id="Layer_15" data-name="Layer 15" xmlns="http://www.w3.org/2000/svg" xmlns:xlink="http://www.w3.org/1999/xlink" viewBox="0 0 137.19 129.33">
  <defs>
    <style>
      .cls-1 {
        fill: url(#linear-gradient);
      }

      .cls-2 {
        fill: url(#linear-gradient-3);
      }

      .cls-3 {
        fill: url(#linear-gradient-4);
      }

      .cls-4 {
        fill: url(#linear-gradient-2);
      }

      .cls-5 {
        fill: url(#linear-gradient-5);
      }
    </style>
    <linearGradient id="linear-gradient" x1="38.55" y1="25.91" x2="38.55" y2="5.19" gradientTransform="translate(0 130.22) scale(1 -1)" gradientUnits="userSpaceOnUse">
      <stop offset="0" stop-color="#7cb1f8"/>
      <stop offset="1" stop-color="#3495e3"/>
    </linearGradient>
    <linearGradient id="linear-gradient-2" x1="90.93" x2="90.93" xlink:href="#linear-gradient"/>
    <linearGradient id="linear-gradient-3" x1="64.74" y1="31.08" x2="64.74" y2="10.37" xlink:href="#linear-gradient"/>
    <linearGradient id="linear-gradient-4" x1="68.59" y1="125.91" x2="68.59" y2="33.88" gradientTransform="translate(0 130.22) scale(1 -1)" gradientUnits="userSpaceOnUse">
      <stop offset="0" stop-color="#a1d2fa"/>
      <stop offset="1" stop-color="#dce2f6"/>
    </linearGradient>
    <linearGradient id="linear-gradient-5" x1="103.77" y1="125.91" x2="103.77" y2="71.09" gradientTransform="translate(0 130.22) scale(1 -1)" gradientUnits="userSpaceOnUse">
      <stop offset="0" stop-color="#fafafc"/>
      <stop offset="1" stop-color="#cbd2e7"/>
    </linearGradient>
  </defs>
  <g>
    <path class="cls-1" d="m40.24,104.94c-.47-.4-1.07-.62-1.68-.62s-1.21.22-1.68.62c-5.38,4.56-7.61,11.75-5.05,16.28.77,1.34,1.93,2.41,3.34,3.05,1.06.5,2.22.75,3.39.75s2.33-.26,3.39-.75c1.41-.64,2.57-1.71,3.34-3.05,2.56-4.53.34-11.73-5.05-16.28Z"/>
    <path class="cls-4" d="m92.66,104.94c-.47-.4-1.07-.62-1.68-.62s-1.21.22-1.68.62c-5.38,4.61-7.61,11.75-5.18,16.28.77,1.34,1.93,2.41,3.34,3.05,1.06.5,2.22.75,3.39.75s2.33-.26,3.39-.75c1.41-.64,2.57-1.71,3.34-3.05,2.69-4.53.47-11.73-4.92-16.28Z"/>
    <path class="cls-2" d="m66.42,99.76c-.47-.4-1.07-.62-1.68-.62s-1.21.22-1.68.62c-5.38,4.61-7.61,11.75-5.05,16.28.77,1.34,1.93,2.41,3.34,3.05,1.06.49,2.22.75,3.39.75s2.33-.26,3.39-.75c1.41-.64,2.57-1.71,3.34-3.05,2.56-4.53.34-11.73-5.05-16.28Z"/>
  </g>
  <g>
    <path class="cls-3" d="m129.77,45.83c-.23-.67-.61-1.27-1.12-1.76-.51-.49-1.13-.85-1.81-1.04-7.02-2.02-13.06-6.55-16.97-12.73-3.91-6.18-5.42-13.57-4.25-20.79.14-.73.1-1.47-.13-2.18-.23-.7-.63-1.34-1.16-1.84-.54-.51-1.19-.87-1.91-1.05-.72-.18-1.47-.18-2.18,0-5.77,1.18-11.04,4.12-15.08,8.4-4.05,4.28-6.68,9.7-7.54,15.53-4.36-1.39-8.9-2.08-13.47-2.06-20.17,0-36.88,13.56-39.11,30.97-4.76.62-9.15,2.9-12.4,6.44-3.25,3.54-5.15,8.1-5.36,12.9.3,5.51,2.78,10.67,6.88,14.36,4.1,3.69,9.49,5.61,15,5.33h17.5c1.16,0,2.27-.46,3.09-1.28.82-.82,1.28-1.93,1.28-3.09s-.46-2.27-1.28-3.09c-.82-.82-1.93-1.28-3.09-1.28h-17.5c-3.18.26-6.34-.75-8.8-2.79-2.45-2.04-4.01-4.97-4.33-8.15.32-3.18,1.88-6.1,4.33-8.15,2.45-2.04,5.61-3.05,8.8-2.79,1.16,0,2.27-.46,3.09-1.28.82-.82,1.28-1.93,1.28-3.09,0-14.48,13.74-26.25,30.62-26.25,6.27-.22,12.46,1.49,17.72,4.9,5.27,3.41,9.36,8.36,11.72,14.17.27.78.75,1.47,1.39,1.99.64.52,1.42.84,2.24.94,3.93.27,7.62,1.96,10.39,4.75,2.77,2.79,4.43,6.5,4.66,10.43-.32,4.34-2.33,8.38-5.6,11.25-3.28,2.87-7.55,4.33-11.9,4.06h-30.62c-1.16,0-2.27.46-3.09,1.28-.82.82-1.28,1.93-1.28,3.09s.46,2.27,1.28,3.09c.82.82,1.93,1.28,3.09,1.28h30.62c6.67.27,13.17-2.11,18.09-6.61,4.92-4.51,7.85-10.78,8.16-17.45-.02-4.73-1.56-9.33-4.38-13.12,4.84-1.96,9.07-5.18,12.25-9.32.46-.54.78-1.19.93-1.88.15-.69.13-1.41-.05-2.1Zm-18.42,6.04c-.5.16-.97.4-1.4.7-2.68-1.73-5.64-2.98-8.75-3.72-3.14-7.04-8.46-12.89-15.18-16.67.07-3.48,1.05-6.88,2.85-9.86,1.8-2.98,4.34-5.43,7.39-7.12.14,7.01,2.19,13.86,5.95,19.78,3.76,5.93,9.07,10.7,15.35,13.82-1.94,1.4-4.12,2.43-6.43,3.06h.22Z"/>
    <path class="cls-5" d="m129.77,45.83c-.23-.67-.61-1.27-1.12-1.76-.51-.49-1.13-.85-1.81-1.04-7.02-2.02-13.06-6.55-16.97-12.73-3.91-6.18-5.42-13.57-4.25-20.79.14-.73.1-1.47-.13-2.18-.23-.7-.63-1.34-1.16-1.84-.54-.51-1.19-.87-1.91-1.05-.72-.18-1.47-.18-2.18,0-5.77,1.18-11.04,4.12-15.08,8.4-4.05,4.28-6.68,9.7-7.54,15.53,1.63.54,5.6,2.06,8.4,3.81.07-3.48,1.05-6.88,2.85-9.86,1.8-2.98,4.34-5.43,7.39-7.12.14,7.01,2.19,13.86,5.95,19.78,3.76,5.93,9.07,10.7,15.35,13.82-1.94,1.4-4.12,2.43-6.43,3.06h.22c-.5.16-.97.4-1.4.7,1.47,1.11,4.87,3.97,6.69,6.56,4.84-1.96,9.07-5.18,12.25-9.32.46-.54.78-1.19.93-1.88.15-.69.13-1.41-.05-2.1Z"/>
  </g>
</svg>