<?xml version="1.0" encoding="UTF-8"?>
<svg id="Layer_17" data-name="Layer 17" xmlns="http://www.w3.org/2000/svg" xmlns:xlink="http://www.w3.org/1999/xlink" viewBox="0 0 137.19 129.33">
  <defs>
    <style>
      .cls-1 {
        fill: url(#linear-gradient);
      }

      .cls-2 {
        fill: url(#linear-gradient-3);
      }

      .cls-3 {
        fill: url(#linear-gradient-4);
      }

      .cls-4 {
        fill: url(#linear-gradient-2);
      }

      .cls-5 {
        fill: url(#linear-gradient-6);
      }

      .cls-6 {
        fill: url(#linear-gradient-7);
      }

      .cls-7 {
        fill: url(#linear-gradient-5);
      }
    </style>
    <linearGradient id="linear-gradient" x1="44.02" y1="109.01" x2="44.02" y2="78.39" gradientTransform="translate(0 130.22) scale(1 -1)" gradientUnits="userSpaceOnUse">
      <stop offset="0" stop-color="#9ea8e1"/>
      <stop offset="1" stop-color="#d0d7f1"/>
    </linearGradient>
    <linearGradient id="linear-gradient-2" x1="95.21" y1="91.51" x2="95.21" y2="60.89" xlink:href="#linear-gradient"/>
    <linearGradient id="linear-gradient-3" x1="44.03" y1="69.64" x2="44.03" y2="60.89" xlink:href="#linear-gradient"/>
    <linearGradient id="linear-gradient-4" x1="105.45" y1="56.51" x2="105.45" y2="25.89" xlink:href="#linear-gradient"/>
    <linearGradient id="linear-gradient-5" y1="56.51" y2="47.76" xlink:href="#linear-gradient"/>
    <linearGradient id="linear-gradient-6" x1="52.22" y1="39.01" x2="52.22" y2="30.26" xlink:href="#linear-gradient"/>
    <linearGradient id="linear-gradient-7" x1="19.45" y1="39.01" x2="19.45" y2="30.26" xlink:href="#linear-gradient"/>
  </defs>
  <path class="cls-1" d="m15.36,51.83h47.09c3.8,0,7.44-1.61,10.13-4.48,2.69-2.87,4.2-6.77,4.2-10.83s-1.51-7.96-4.2-10.83c-2.69-2.87-6.33-4.48-10.13-4.48h-6.14c-1.09,0-2.13.46-2.9,1.28-.77.82-1.2,1.93-1.2,3.09s.43,2.27,1.2,3.09c.77.82,1.81,1.28,2.9,1.28h6.14c1.63,0,3.19.69,4.34,1.92,1.15,1.23,1.8,2.9,1.8,4.64s-.65,3.41-1.8,4.64c-1.15,1.23-2.71,1.92-4.34,1.92H15.36c-1.09,0-2.13.46-2.9,1.28-.77.82-1.2,1.93-1.2,3.09s.43,2.27,1.2,3.09c.77.82,1.81,1.28,2.9,1.28Z"/>
  <path class="cls-4" d="m105.45,47.46h6.15c1.63,0,3.19.69,4.34,1.92s1.8,2.9,1.8,4.64-.65,3.41-1.8,4.64-2.71,1.92-4.34,1.92h-43c-1.09,0-2.13.46-2.9,1.28-.76.82-1.2,1.93-1.2,3.09s.44,2.27,1.2,3.09c.77.82,1.81,1.28,2.9,1.28h43c3.8,0,7.44-1.61,10.13-4.48,2.69-2.87,4.2-6.77,4.2-10.83s-1.51-7.96-4.2-10.83c-2.69-2.87-6.33-4.48-10.13-4.48h-6.15c-1.08,0-2.12.46-2.89,1.28-.77.82-1.2,1.93-1.2,3.09s.43,2.27,1.2,3.09c.77.82,1.81,1.28,2.89,1.28Z"/>
  <path class="cls-2" d="m35.84,60.58c-1.09,0-2.13.46-2.9,1.28-.76.82-1.19,1.93-1.19,3.09s.43,2.27,1.19,3.09c.77.82,1.81,1.28,2.9,1.28h16.38c1.09,0,2.13-.46,2.9-1.28.76-.82,1.2-1.93,1.2-3.09s-.44-2.27-1.2-3.09c-.77-.82-1.81-1.28-2.9-1.28h-16.38Z"/>
  <path class="cls-3" d="m111.6,73.71h-22.52c-1.09,0-2.13.46-2.9,1.28-.77.82-1.2,1.93-1.2,3.09s.43,2.27,1.2,3.09c.77.82,1.81,1.28,2.9,1.28h22.52c1.63,0,3.19.69,4.34,1.92s1.8,2.9,1.8,4.64-.65,3.41-1.8,4.64-2.71,1.92-4.34,1.92h-6.14c-1.09,0-2.13.46-2.9,1.28-.77.82-1.2,1.93-1.2,3.09s.43,2.27,1.2,3.09c.77.82,1.81,1.28,2.9,1.28h6.14c3.8,0,7.44-1.61,10.13-4.48,2.69-2.87,4.2-6.77,4.2-10.83s-1.51-7.96-4.2-10.83c-2.69-2.87-6.33-4.48-10.13-4.48Z"/>
  <path class="cls-7" d="m72.7,73.71H15.36c-1.09,0-2.13.46-2.9,1.28-.77.82-1.2,1.93-1.2,3.09s.43,2.27,1.2,3.09c.77.82,1.81,1.28,2.9,1.28h57.33c1.08,0,2.12-.46,2.89-1.28.77-.82,1.2-1.93,1.2-3.09s-.43-2.27-1.2-3.09c-.77-.82-1.81-1.28-2.89-1.28Z"/>
  <path class="cls-5" d="m64.49,91.21h-24.57c-1.08,0-2.12.46-2.89,1.28-.77.82-1.2,1.93-1.2,3.09s.43,2.27,1.2,3.09c.77.82,1.81,1.28,2.89,1.28h24.57c1.09,0,2.13-.46,2.9-1.28.77-.82,1.2-1.93,1.2-3.09s-.43-2.27-1.2-3.09c-.77-.82-1.81-1.28-2.9-1.28Z"/>
  <path class="cls-6" d="m23.56,91.21h-8.19c-1.09,0-2.13.46-2.9,1.28-.77.82-1.2,1.93-1.2,3.09s.43,2.27,1.2,3.09c.77.82,1.81,1.28,2.9,1.28h8.19c1.08,0,2.12-.46,2.89-1.28.77-.82,1.2-1.93,1.2-3.09s-.43-2.27-1.2-3.09c-.77-.82-1.81-1.28-2.89-1.28Z"/>
</svg>